     <svg
                    width="51"
                    height="51"
                    viewBox="0 0 51 51"
                    fill="none"
                    xmlns="http://www.w3.org/2000/svg"
                  >
                    <path
                      d="M34 9.5L41.5 17M41.5 17L49 9.5M41.5 17V2M25.25 4.5H13.5C9.29961 4.5 7.19941 4.5 5.59507 5.31745C4.18386 6.0365 3.0365 7.18386 2.31745 8.59507C1.5 10.1994 1.5 12.2996 1.5 16.5V37.5C1.5 41.7004 1.5 43.8006 2.31745 45.4049C3.0365 46.8161 4.18386 47.9635 5.59507 48.6825C7.19941 49.5 9.29961 49.5 13.5 49.5H36.5C38.8249 49.5 39.9874 49.5 40.9411 49.2444C43.5293 48.5509 45.5509 46.5293 46.2444 43.9411C46.5 42.9874 46.5 41.8249 46.5 39.5M20.25 18.25C20.25 21.0114 18.0114 23.25 15.25 23.25C12.4886 23.25 10.25 21.0114 10.25 18.25C10.25 15.4886 12.4886 13.25 15.25 13.25C18.0114 13.25 20.25 15.4886 20.25 18.25ZM31.4751 26.7954L10.3279 46.0201C9.13841 47.1014 8.54367 47.6421 8.49107 48.1105C8.44547 48.5165 8.60113 48.9191 8.90796 49.1888C9.26195 49.5 10.0657 49.5 11.6732 49.5H35.1399C38.7379 49.5 40.5368 49.5 41.9498 48.8956C43.7236 48.1368 45.1368 46.7236 45.8956 44.9498C46.5 43.5368 46.5 41.7379 46.5 38.1399C46.5 36.9294 46.5 36.3241 46.3677 35.7604C46.2013 35.052 45.8824 34.3884 45.4331 33.816C45.0756 33.3605 44.603 32.9824 43.6577 32.2261L36.6646 26.6317C35.7185 25.8748 35.2454 25.4963 34.7245 25.3628C34.2653 25.2451 33.7822 25.2603 33.3313 25.4067C32.8199 25.5729 32.3716 25.9804 31.4751 26.7954Z"
                      stroke="#EC6416"
                      strokeWidth="3"
                      strokeLinecap="round"
                      strokeLinejoin="round"
                    />
                  </svg>