<svg width="28" height="30" viewBox="0 0 28 30" fill="none" xmlns="http://www.w3.org/2000/svg">
<path fill-rule="evenodd" clip-rule="evenodd" d="M8 2C8.55228 2 9 2.44772 9 3V4H19V3C19 2.44772 19.4478 2 20 2C20.5522 2 21 2.44772 21 3V4H24C25.6568 4 27 5.34314 27 7V25C27 26.6568 25.6568 28 24 28H4C2.34314 28 1 26.6568 1 25V7C1 5.34314 2.34314 4 4 4H7V3C7 2.44772 7.44772 2 8 2ZM19 6V7C19 7.55228 19.4478 8 20 8C20.5522 8 21 7.55228 21 7V6H24C24.5522 6 25 6.44772 25 7V10H3V7C3 6.44772 3.44772 6 4 6H7V7C7 7.55228 7.44772 8 8 8C8.55228 8 9 7.55228 9 7V6H19ZM3 12V25C3 25.5522 3.44772 26 4 26H24C24.5522 26 25 25.5522 25 25V12H3ZM13 15C13 14.4477 13.4477 14 14 14C14.5523 14 15 14.4477 15 15C15 15.5523 14.5523 16 14 16C13.4477 16 13 15.5523 13 15ZM18 14C17.4477 14 17 14.4477 17 15C17 15.5523 17.4477 16 18 16C18.5523 16 19 15.5523 19 15C19 14.4477 18.5523 14 18 14ZM21 15C21 14.4477 21.4478 14 22 14C22.5522 14 23 14.4477 23 15C23 15.5523 22.5522 16 22 16C21.4478 16 21 15.5523 21 15ZM22 18C21.4478 18 21 18.4477 21 19C21 19.5523 21.4478 20 22 20C22.5522 20 23 19.5523 23 19C23 18.4477 22.5522 18 22 18ZM17 19C17 18.4477 17.4477 18 18 18C18.5523 18 19 18.4477 19 19C19 19.5523 18.5523 20 18 20C17.4477 20 17 19.5523 17 19ZM14 18C13.4477 18 13 18.4477 13 19C13 19.5523 13.4477 20 14 20C14.5523 20 15 19.5523 15 19C15 18.4477 14.5523 18 14 18ZM9 19C9 18.4477 9.44772 18 10 18C10.5523 18 11 18.4477 11 19C11 19.5523 10.5523 20 10 20C9.44772 20 9 19.5523 9 19ZM6 18C5.44772 18 5 18.4477 5 19C5 19.5523 5.44772 20 6 20C6.55228 20 7 19.5523 7 19C7 18.4477 6.55228 18 6 18ZM5 23C5 22.4478 5.44772 22 6 22C6.55228 22 7 22.4478 7 23C7 23.5522 6.55228 24 6 24C5.44772 24 5 23.5522 5 23ZM10 22C9.44772 22 9 22.4478 9 23C9 23.5522 9.44772 24 10 24C10.5523 24 11 23.5522 11 23C11 22.4478 10.5523 22 10 22ZM13 23C13 22.4478 13.4477 22 14 22C14.5523 22 15 22.4478 15 23C15 23.5522 14.5523 24 14 24C13.4477 24 13 23.5522 13 23ZM18 22C17.4477 22 17 22.4478 17 23C17 23.5522 17.4477 24 18 24C18.5523 24 19 23.5522 19 23C19 22.4478 18.5523 22 18 22Z" fill="#EC6416"/>
</svg>
