<svg width="48" height="48" viewBox="0 0 60 60" fill="none" xmlns="http://www.w3.org/2000/svg">
<path fill-rule="evenodd" clip-rule="evenodd" d="M30 15.3125C28.2741 15.3125 26.875 16.7116 26.875 18.4375C26.875 20.1634 28.2741 21.5625 30 21.5625C31.7258 21.5625 33.125 20.1634 33.125 18.4375C33.125 16.7116 31.7258 15.3125 30 15.3125ZM24.375 18.4375C24.375 15.3309 26.8933 12.8125 30 12.8125C33.1066 12.8125 35.625 15.3309 35.625 18.4375C35.625 20.6144 34.3885 22.5024 32.5795 23.4375H33.75C34.7948 23.4375 35.7706 23.9598 36.3501 24.8291L41.3501 32.329C42.3075 33.7651 41.9195 35.7052 40.4835 36.6626C39.3511 37.4175 37.9052 37.3359 36.875 36.5636V44.0625C36.875 45.7884 35.4758 47.1875 33.75 47.1875C32.0241 47.1875 30.625 45.7884 30.625 44.0625V39.0625H29.375V44.0625C29.375 45.7884 27.9758 47.1875 26.25 47.1875C24.5241 47.1875 23.125 45.7884 23.125 44.0625V36.5636C22.0947 37.3359 20.6488 37.4175 19.5166 36.6626C18.0805 35.7052 17.6925 33.7651 18.6498 32.329L23.6498 24.8291C24.2295 23.9598 25.2051 23.4375 26.25 23.4375H27.4205C25.6115 22.5024 24.375 20.6144 24.375 18.4375ZM26.25 25.9375C26.041 25.9375 25.8458 26.042 25.73 26.2158L20.73 33.7158C20.5385 34.003 20.6161 34.391 20.9033 34.5825C21.1905 34.774 21.5786 34.6964 21.77 34.4091L25.625 28.6267V44.0625C25.625 44.4076 25.9048 44.6875 26.25 44.6875C26.5952 44.6875 26.875 44.4076 26.875 44.0625V36.5625H33.125V44.0625C33.125 44.4076 33.4048 44.6875 33.75 44.6875C34.0952 44.6875 34.375 44.4076 34.375 44.0625V28.6267L38.23 34.4091C38.4215 34.6964 38.8095 34.774 39.0967 34.5825C39.3838 34.391 39.4615 34.003 39.27 33.7158L34.27 26.2158C34.1541 26.042 33.959 25.9375 33.75 25.9375H26.25Z" fill="#ec6416"/>
</svg>
