<?xml version="1.0" standalone="no"?>
<!DOCTYPE svg PUBLIC "-//W3C//DTD SVG 20010904//EN"
 "http://www.w3.org/TR/2001/REC-SVG-20010904/DTD/svg10.dtd">
<svg version="1.0" xmlns="http://www.w3.org/2000/svg"
 width="512.000000pt" height="512.000000pt" viewBox="0 0 512.000000 512.000000"
 preserveAspectRatio="xMidYMid meet">

<g transform="translate(0.000000,512.000000) scale(0.100000,-0.100000)"
fill="#EC6416" stroke="none">
<path d="M2513 5045 c-17 -12 -41 -76 -99 -255 l-78 -240 -242 0 c-134 0 -254
-4 -268 -10 -39 -15 -61 -54 -50 -92 8 -27 45 -58 211 -178 112 -80 203 -152
203 -159 0 -8 -34 -117 -75 -243 -51 -154 -74 -235 -69 -252 10 -42 42 -61 95
-57 8 0 105 66 215 146 109 80 204 143 210 141 6 -2 98 -67 204 -145 107 -78
201 -142 209 -142 53 -4 85 15 95 57 5 17 -18 98 -69 252 -41 126 -75 235 -75
243 1 7 92 79 203 159 167 121 203 150 211 177 11 39 -11 78 -50 93 -14 6
-134 10 -268 10 l-242 0 -78 240 c-81 251 -91 270 -146 270 -14 0 -35 -7 -47
-15z"/>
<path d="M559 4471 c-23 -19 -24 -24 -30 -228 -4 -114 -7 -231 -8 -259 l-1
-50 -232 -68 c-128 -37 -243 -74 -255 -82 -29 -19 -38 -57 -23 -94 14 -33 28
-39 332 -146 l168 -59 -5 -120 c-3 -66 -7 -180 -10 -253 l-5 -133 29 -30 c32
-32 65 -37 96 -15 11 8 85 100 165 205 80 104 149 190 154 191 5 0 109 -36
232 -80 122 -44 235 -80 251 -80 18 0 38 9 51 23 42 45 32 68 -118 287 -77
112 -140 206 -140 209 0 4 68 94 150 200 83 107 153 204 156 217 7 26 -18 79
-41 88 -30 11 -54 6 -238 -48 -100 -30 -205 -61 -234 -69 l-51 -15 -134 196
c-73 108 -141 205 -150 214 -24 24 -80 23 -109 -1z"/>
<path d="M4453 4472 c-10 -9 -78 -106 -151 -214 l-134 -196 -51 15 c-29 8
-134 39 -234 69 -184 54 -208 59 -238 48 -23 -9 -48 -62 -41 -88 3 -13 73
-110 156 -217 82 -106 150 -196 150 -200 0 -3 -63 -97 -140 -209 -152 -221
-162 -246 -117 -288 13 -12 36 -22 52 -22 15 0 128 36 251 80 122 44 226 80
231 80 4 -1 73 -87 153 -191 80 -105 154 -197 165 -205 31 -22 64 -17 96 16
l30 29 -6 118 c-2 65 -7 179 -10 253 l-5 135 168 59 c304 107 318 113 332 146
16 38 6 76 -24 95 -13 9 -127 45 -253 82 l-230 66 -7 120 c-3 66 -6 176 -6
244 0 162 -14 193 -91 193 -16 0 -37 -8 -46 -18z"/>
<path d="M2320 3016 c-240 -43 -442 -129 -641 -272 -106 -77 -280 -257 -353
-368 -364 -551 -332 -1255 81 -1766 26 -33 51 -60 54 -60 3 0 11 12 18 28 7
15 41 70 76 123 144 216 361 386 598 468 l97 33 -47 30 c-203 129 -317 404
-269 648 83 414 530 639 904 454 336 -165 460 -575 271 -897 -46 -78 -125
-163 -192 -205 l-47 -30 97 -33 c178 -62 375 -194 495 -333 61 -71 155 -207
179 -259 7 -15 16 -26 20 -25 16 6 122 146 170 225 300 494 286 1109 -37 1599
-83 126 -280 322 -410 407 -159 105 -337 181 -524 222 -102 23 -436 29 -540
11z"/>
<path d="M2439 2222 c-266 -70 -419 -356 -330 -615 77 -224 312 -360 538 -313
314 65 477 388 342 673 -76 161 -252 272 -429 272 -30 0 -85 -8 -121 -17z"/>
<path d="M2377 1065 c-332 -63 -601 -265 -754 -566 l-37 -72 40 -35 c108 -94
306 -203 464 -256 157 -52 271 -70 460 -70 196 -1 309 15 465 66 167 54 371
165 479 260 l39 34 -47 90 c-132 257 -387 458 -671 530 -128 32 -322 41 -438
19z"/>
</g>
</svg>
