<?xml version="1.0" standalone="no"?>
<!DOCTYPE svg PUBLIC "-//W3C//DTD SVG 20010904//EN"
 "http://www.w3.org/TR/2001/REC-SVG-20010904/DTD/svg10.dtd">
<svg version="1.0" xmlns="http://www.w3.org/2000/svg"
 width="512.000000pt" height="512.000000pt" viewBox="0 0 512.000000 512.000000"
 preserveAspectRatio="xMidYMid meet">

<g transform="translate(0.000000,512.000000) scale(0.100000,-0.100000)"
fill="#EC6416" stroke="none">
<path d="M2490 4951 c-88 -29 -126 -69 -220 -231 -39 -69 -75 -128 -79 -133
-4 -4 -71 29 -148 73 -168 96 -220 111 -303 87 -74 -22 -130 -65 -166 -129
-29 -52 -29 -55 -32 -235 l-4 -183 -174 0 c-188 0 -212 -5 -279 -56 -20 -15
-48 -53 -66 -90 -29 -58 -31 -71 -26 -129 4 -59 13 -79 87 -210 45 -79 82
-147 82 -152 0 -4 -60 -43 -134 -86 -73 -43 -146 -90 -162 -105 -76 -72 -98
-203 -50 -300 33 -66 63 -90 223 -181 l130 -74 -14 -26 c-7 -14 -43 -78 -79
-141 -37 -63 -71 -133 -77 -155 -24 -86 6 -189 73 -251 68 -64 85 -69 286 -72
l182 -4 0 -115 0 -114 -360 -624 c-263 -455 -360 -631 -360 -654 0 -40 31 -71
70 -71 22 0 125 54 343 180 l312 181 5 -377 5 -376 24 -19 c27 -22 68 -24 93
-6 9 8 177 292 374 633 196 340 362 625 369 632 10 12 18 11 46 -3 49 -26 142
-24 204 4 27 12 51 18 52 14 25 -73 688 -1232 724 -1265 43 -40 67 -37 121 15
1 1 5 170 8 375 l5 372 312 -180 c216 -124 322 -180 343 -180 39 0 70 31 70
71 0 22 -100 204 -360 654 l-360 624 0 115 0 116 168 0 169 0 64 32 c106 54
157 144 146 257 -6 52 -10 62 -154 317 l-23 41 105 58 c157 85 217 133 249
196 50 101 26 233 -56 305 -20 18 -93 64 -162 104 -70 40 -128 76 -131 79 -2
4 30 62 71 131 78 132 104 198 104 264 0 77 -68 183 -142 222 -45 23 -164 35
-289 28 l-117 -7 -4 179 c-3 156 -6 185 -24 224 -38 83 -119 144 -207 156 -66
9 -136 -16 -281 -101 -71 -42 -132 -72 -137 -68 -4 4 -40 64 -79 133 -81 139
-116 182 -175 212 -43 22 -144 33 -185 19z m138 -174 c12 -12 64 -93 114 -180
50 -88 99 -169 108 -180 30 -36 70 -26 197 51 213 128 271 150 324 122 43 -23
49 -57 49 -270 0 -209 7 -249 45 -264 9 -3 106 -6 216 -6 232 0 260 -7 285
-66 20 -49 11 -72 -106 -274 -88 -151 -100 -183 -80 -219 5 -10 86 -62 179
-116 93 -53 179 -108 192 -122 34 -35 33 -103 -1 -137 -14 -14 -95 -64 -180
-112 -85 -48 -165 -96 -177 -107 -40 -35 -30 -70 64 -232 47 -82 95 -166 105
-186 23 -45 16 -88 -23 -125 l-28 -27 -220 -1 c-280 -1 -267 7 -263 -164 1
-64 -1 -163 -4 -220 -5 -89 -9 -107 -30 -132 -53 -62 -93 -51 -334 90 -75 44
-145 80 -156 80 -38 0 -63 -31 -155 -192 -112 -195 -132 -218 -189 -218 -58 0
-78 23 -189 217 -92 162 -117 193 -156 193 -11 0 -99 -46 -195 -102 -201 -116
-237 -126 -287 -75 l-28 27 -5 224 c-4 199 -7 226 -23 244 -18 19 -32 21 -243
24 l-224 3 -32 32 c-54 55 -48 80 70 284 116 199 122 223 70 262 -18 13 -85
51 -148 83 -71 37 -135 78 -169 110 -50 46 -56 56 -56 92 0 29 7 48 24 66 13
14 100 69 193 122 93 53 173 105 178 115 20 36 8 66 -84 229 -116 203 -120
213 -105 257 22 66 47 73 281 73 113 0 214 3 223 6 39 15 45 54 45 274 l0 212
29 29 c52 51 81 44 292 -76 188 -108 212 -116 246 -82 6 7 53 84 104 172 97
169 129 212 163 218 33 6 69 -4 94 -26z m-375 -3093 c31 -54 56 -104 55 -111
-2 -6 -136 -241 -298 -522 l-295 -511 -5 290 c-5 281 -6 290 -27 311 -12 13
-34 22 -50 22 -18 0 -116 -50 -268 -138 -132 -76 -244 -140 -248 -143 -13 -6
-9 0 245 441 l230 397 43 -38 c51 -45 100 -62 178 -62 59 0 117 25 292 128 39
23 74 40 80 38 5 -1 36 -47 68 -102z m801 42 c61 -36 135 -74 164 -85 99 -39
206 -20 278 50 l31 30 230 -398 c256 -443 258 -447 246 -441 -4 3 -116 67
-247 143 -260 150 -282 158 -323 111 -23 -27 -23 -27 -23 -318 l0 -291 -202
319 c-263 416 -418 672 -418 690 0 8 28 63 61 122 64 110 78 132 87 132 2 0
55 -29 116 -64z"/>
<path d="M2363 4265 c-441 -80 -793 -429 -879 -871 -23 -116 -22 -311 1 -419
90 -425 391 -740 813 -852 86 -23 117 -26 262 -26 145 0 177 3 261 26 324 86
570 283 714 572 123 247 152 508 84 769 -105 410 -450 728 -868 801 -101 18
-290 18 -388 0z m405 -160 c178 -43 346 -139 471 -270 115 -122 188 -252 233
-416 19 -71 23 -107 22 -239 -1 -139 -3 -164 -28 -245 -106 -352 -373 -599
-725 -670 -124 -25 -325 -17 -444 19 -404 121 -676 484 -677 906 0 168 50 345
142 497 41 69 152 190 228 248 116 89 286 162 430 184 84 13 267 6 348 -14z"/>
<path d="M2515 3856 c-16 -7 -38 -22 -47 -32 -9 -11 -44 -103 -78 -206 l-61
-188 -202 0 c-145 -1 -209 -4 -225 -14 -54 -29 -76 -103 -50 -161 7 -16 78
-74 172 -142 89 -64 162 -117 163 -118 2 -1 -24 -82 -57 -180 -33 -99 -60
-196 -60 -216 0 -72 84 -133 151 -110 16 5 95 58 176 116 80 59 151 109 157
111 6 2 82 -47 168 -110 86 -62 169 -116 183 -120 66 -17 145 45 145 113 0 20
-27 117 -60 216 -33 98 -59 179 -57 180 1 2 74 54 163 118 94 68 165 127 172
142 16 35 15 71 -3 109 -27 57 -40 61 -268 66 l-208 5 -61 185 c-33 102 -68
193 -77 204 -17 20 -71 46 -93 46 -7 -1 -26 -7 -43 -14z m98 -379 c66 -199 54
-191 270 -197 l172 -5 -124 -90 c-124 -89 -161 -129 -161 -173 0 -13 21 -86
46 -163 25 -78 44 -142 42 -145 -2 -2 -59 37 -126 86 -67 48 -135 91 -151 95
-41 9 -80 -11 -205 -104 -61 -44 -112 -79 -114 -77 -2 2 17 68 42 146 25 78
46 151 46 161 0 43 -35 81 -157 171 l-128 93 172 5 c216 6 204 -2 270 197 26
78 50 143 53 143 3 0 27 -65 53 -143z"/>
</g>
</svg>
