<?xml version="1.0" standalone="no"?>
<!DOCTYPE svg PUBLIC "-//W3C//DTD SVG 20010904//EN"
 "http://www.w3.org/TR/2001/REC-SVG-20010904/DTD/svg10.dtd">
<svg version="1.0" xmlns="http://www.w3.org/2000/svg"
 width="512.000000pt" height="512.000000pt" viewBox="0 0 512.000000 512.000000"
 preserveAspectRatio="xMidYMid meet">

<g transform="translate(-210.000000,512.000000) scale(0.100000,-0.100000)"
fill="#EC6416" stroke="none">
<path d="M4565 5111 c-11 -5 -29 -19 -40 -31 -18 -20 -20 -39 -23 -189 -3
-137 -7 -169 -20 -185 -23 -26 -161 -117 -327 -216 -478 -285 -715 -508 -864
-814 -130 -268 -167 -595 -95 -844 6 -21 -1 -18 -70 25 l-76 48 0 61 c0 51 -4
66 -24 87 -31 33 -68 43 -107 27 -39 -17 -59 -57 -59 -119 l0 -49 -147 -93
c-315 -199 -434 -382 -421 -649 4 -81 8 -97 46 -172 40 -79 42 -87 42 -174 l0
-91 -66 -6 c-54 -4 -71 -10 -93 -31 l-26 -26 -3 -740 c-2 -712 -3 -740 -21
-740 -30 0 -70 -38 -77 -74 -8 -45 17 -91 57 -105 45 -16 4853 -16 4898 0 32
11 61 52 61 86 0 34 -39 83 -70 90 l-30 6 0 733 0 734 -28 31 c-24 27 -36 32
-95 36 l-67 6 0 96 c0 90 2 101 35 166 39 78 60 184 50 255 -33 248 -142 393
-431 573 l-132 81 -5 64 c-6 82 -35 117 -97 117 -62 0 -91 -35 -97 -117 l-5
-65 -66 -41 c-36 -23 -67 -41 -68 -39 -1 1 4 27 13 57 24 89 28 287 8 415 -41
264 -148 491 -330 698 -156 177 -321 301 -724 542 -90 54 -187 117 -215 139
l-51 42 -5 172 c-5 167 -6 172 -30 197 -28 27 -74 39 -105 26z m93 -605 c32
-24 136 -91 232 -148 232 -139 306 -187 423 -276 313 -236 477 -498 527 -839
25 -176 5 -308 -67 -453 l-48 -95 -1123 -3 -1122 -2 -30 46 c-16 25 -43 85
-60 133 -93 255 -17 635 181 902 148 199 325 340 734 585 82 49 181 112 220
141 38 28 71 52 73 52 2 1 29 -19 60 -43z m-1576 -1848 c81 -50 158 -107 200
-148 l68 -67 0 -162 0 -161 -429 0 c-481 0 -441 -7 -441 79 0 119 56 238 155
328 44 40 290 207 313 212 1 1 62 -36 134 -81z m3300 -5 c244 -154 333 -278
326 -454 l-3 -74 -427 -3 -428 -2 0 163 0 163 58 59 c31 32 102 88 157 123 55
36 116 75 135 88 19 12 41 21 47 19 7 -3 68 -39 135 -82z m-722 -248 l0 -95
-1060 0 -1060 0 0 95 0 95 1060 0 1060 0 0 -95z m2 -550 l3 -265 28 -27 27
-28 550 -3 550 -3 0 -669 0 -670 -140 0 -140 0 0 60 c0 81 -29 154 -100 248
-86 115 -142 166 -184 166 -46 0 -75 -21 -155 -116 -96 -112 -133 -187 -139
-283 l-5 -75 -243 0 -243 0 -3 468 c-4 453 -4 469 -26 526 -43 114 -101 198
-225 324 -163 167 -541 422 -623 422 -20 0 -75 -27 -160 -78 -399 -240 -629
-475 -690 -707 -11 -38 -14 -157 -14 -502 l0 -453 -245 0 -245 0 0 60 c0 81
-29 154 -100 248 -86 115 -142 166 -184 166 -46 0 -75 -21 -155 -116 -96 -113
-133 -187 -139 -283 l-5 -76 -136 3 -136 3 -3 667 -2 667 547 3 c590 3 578 2
602 55 7 15 11 119 11 278 l0 255 1060 0 1059 0 3 -265z m-2312 -30 l0 -95
-390 0 -390 0 0 95 0 95 390 0 390 0 0 -95z m3280 0 l0 -95 -390 0 -390 0 0
95 0 95 390 0 390 0 0 -95z m-1922 -166 c287 -180 482 -366 544 -519 23 -54
23 -62 23 -500 l0 -445 -142 -3 -143 -3 0 434 c0 284 -4 445 -11 465 -21 61
-26 62 -373 62 -203 0 -323 -4 -339 -11 -52 -24 -52 -20 -55 -501 l-3 -448
-145 0 -145 0 3 453 3 453 37 75 c57 114 197 262 365 382 82 60 257 167 271
167 7 0 57 -27 110 -61z m84 -1084 l-2 -385 -190 0 -190 0 0 385 0 385 193 0
192 0 -3 -385z m-1759 -262 c10 -18 17 -53 17 -78 l0 -46 -97 3 c-95 3 -98 4
-101 27 -7 46 9 90 54 151 l45 61 33 -43 c18 -24 40 -57 49 -75z m3300 0 c10
-18 17 -53 17 -78 l0 -46 -97 3 c-95 3 -98 4 -101 27 -7 46 9 90 54 151 l45
61 33 -43 c18 -24 40 -57 49 -75z"/>
<path d="M2914 1431 c-28 -12 -137 -133 -185 -206 -58 -88 -71 -144 -67 -280
3 -110 4 -116 31 -142 l27 -28 208 -3 c234 -4 274 3 297 48 20 38 20 248 1
303 -25 68 -80 149 -156 229 -77 81 -111 98 -156 79z m119 -348 c10 -18 17
-53 17 -78 l0 -46 -97 3 c-95 3 -98 4 -101 27 -7 46 9 90 54 151 l45 61 33
-43 c18 -24 40 -57 49 -75z"/>
<path d="M6214 1431 c-28 -12 -137 -133 -185 -206 -58 -88 -71 -144 -67 -280
3 -110 4 -116 31 -142 l27 -28 208 -3 c234 -4 274 3 297 48 20 38 20 248 1
303 -25 68 -80 149 -156 229 -77 81 -111 98 -156 79z m119 -348 c10 -18 17
-53 17 -78 l0 -46 -97 3 c-95 3 -98 4 -101 27 -7 46 9 90 54 151 l45 61 33
-43 c18 -24 40 -57 49 -75z"/>
</g>
</svg>
