<svg width="28" height="28" viewBox="0 0 28 28" fill="none" xmlns="http://www.w3.org/2000/svg">
<path d="M2.33337 8.1665L11.8591 14.8345C12.6305 15.3745 13.0162 15.6445 13.4357 15.749C13.8063 15.8414 14.1938 15.8414 14.5644 15.749C14.9839 15.6445 15.3696 15.3745 16.141 14.8345L25.6667 8.1665M7.93337 23.3332H20.0667C22.0269 23.3332 23.007 23.3332 23.7557 22.9517C24.4142 22.6161 24.9497 22.0807 25.2852 21.4221C25.6667 20.6734 25.6667 19.6934 25.6667 17.7332V10.2665C25.6667 8.30632 25.6667 7.32623 25.2852 6.57754C24.9497 5.91897 24.4142 5.38354 23.7557 5.04798C23.007 4.6665 22.0269 4.6665 20.0667 4.6665H7.93337C5.97319 4.6665 4.9931 4.6665 4.24441 5.04798C3.58584 5.38354 3.05041 5.91897 2.71485 6.57754C2.33337 7.32623 2.33337 8.30632 2.33337 10.2665V17.7332C2.33337 19.6934 2.33337 20.6734 2.71485 21.4221C3.05041 22.0807 3.58584 22.6161 4.24441 22.9517C4.9931 23.3332 5.97319 23.3332 7.93337 23.3332Z" stroke="white" strokeWidth="2" strokeLinecap="round" strokeLinejoin="round"/>
</svg>
