<?xml version="1.0" standalone="no"?>
<!DOCTYPE svg PUBLIC "-//W3C//DTD SVG 20010904//EN"
 "http://www.w3.org/TR/2001/REC-SVG-20010904/DTD/svg10.dtd">
<svg version="1.0" xmlns="http://www.w3.org/2000/svg"
 width="800.000000pt" height="800.000000pt" viewBox="0 0 800.000000 800.000000"
 preserveAspectRatio="xMidYMid meet">

<g transform="translate(0.000000,800.000000) scale(0.100000,-0.100000)"
fill="#000000" stroke="none">
<path d="M14 6617 c-24 -26 212 -298 492 -568 101 -98 183 -164 301 -244 45
-31 85 -60 89 -66 7 -11 -54 -3 -96 13 -41 16 -275 63 -370 74 -101 12 -117
14 -141 19 -61 12 -155 22 -161 18 -5 -2 -8 -12 -8 -22 0 -15 12 -19 68 -24
76 -8 194 -24 232 -32 14 -3 59 -10 100 -15 91 -12 168 -27 235 -45 135 -38
171 -48 180 -55 6 -4 37 -17 70 -30 157 -61 314 -156 535 -321 136 -102 133
-99 281 -242 63 -62 150 -137 192 -167 74 -53 76 -56 77 -96 0 -22 -3 -44 -7
-48 -4 -4 -8 -13 -8 -19 -1 -21 -15 -90 -30 -147 -7 -30 -19 -93 -25 -140 -6
-47 -17 -125 -25 -175 -17 -98 -37 -227 -55 -345 -6 -41 -14 -88 -17 -105 -3
-16 -5 -66 -4 -110 0 -148 54 -221 249 -340 63 -39 328 -220 330 -227 2 -4 7
-8 12 -8 8 0 232 -149 803 -533 104 -70 191 -127 194 -127 3 0 22 -12 42 -27
20 -16 44 -32 53 -38 9 -5 96 -64 193 -130 98 -66 186 -125 197 -132 12 -6 37
-23 57 -37 65 -47 231 -156 238 -156 4 0 16 -9 27 -19 19 -17 400 -276 480
-326 18 -11 163 -107 322 -214 571 -384 519 -355 595 -329 59 20 97 60 184
196 6 9 39 59 74 111 36 53 78 116 95 141 17 26 36 54 41 63 10 17 223 331
426 630 63 93 118 176 124 185 5 9 21 33 35 52 14 19 34 49 45 67 11 18 97
146 190 285 94 139 175 260 180 269 6 9 38 58 73 108 85 124 102 164 88 217
-6 22 -20 52 -31 66 -11 15 -104 83 -208 152 -103 69 -200 134 -215 145 -15
10 -130 88 -257 171 -126 84 -239 161 -251 171 -11 10 -23 19 -26 19 -5 0
-514 338 -894 594 -49 34 -97 66 -106 71 -10 6 -62 42 -118 80 -56 39 -109 75
-118 80 -9 6 -33 22 -53 38 -20 15 -40 27 -43 27 -4 0 -32 18 -64 40 -77 54
-284 194 -297 200 -6 3 -56 37 -113 75 -57 39 -134 90 -171 115 -38 25 -133
89 -212 143 -165 112 -152 103 -326 218 -141 93 -207 120 -283 113 -53 -5
-139 -31 -160 -49 -8 -7 -41 -28 -73 -46 -32 -19 -71 -42 -85 -52 -15 -9 -38
-23 -52 -30 -14 -6 -69 -39 -123 -72 -54 -33 -110 -67 -125 -76 -15 -9 -56
-35 -92 -58 -36 -23 -76 -47 -90 -53 -14 -7 -30 -17 -37 -23 -7 -5 -19 -16
-27 -22 -8 -7 -20 -13 -25 -13 -5 0 -16 -6 -24 -14 -7 -8 -39 -31 -71 -51
l-57 -36 73 -48 c73 -48 191 -164 238 -234 14 -20 32 -37 40 -37 64 0 202 -65
218 -103 2 -4 9 -13 16 -20 21 -20 37 -55 51 -110 34 -131 -45 -286 -167 -326
-21 -7 -40 -17 -43 -22 -11 -17 -112 -9 -169 13 -31 11 -76 38 -100 59 -47 41
-96 130 -96 172 0 25 3 27 39 27 46 0 127 39 167 82 26 26 29 37 29 91 0 57
-4 67 -48 133 -86 130 -231 247 -375 303 -116 45 -111 43 -202 67 -36 9 -86
23 -112 30 -26 8 -55 14 -64 14 -17 0 -122 24 -309 71 -93 23 -172 48 -197 60
-10 5 -23 9 -29 9 -6 0 -27 7 -47 16 -21 9 -46 20 -57 24 -197 83 -334 149
-382 186 -17 13 -35 24 -38 24 -10 0 -108 71 -205 148 -82 65 -359 336 -445
436 -27 32 -63 72 -78 90 -16 17 -47 57 -69 89 -43 61 -47 63 -64 44z m1351
-1087 c6 -5 51 -20 100 -35 50 -14 101 -30 115 -35 14 -5 36 -12 50 -14 14 -3
36 -8 50 -11 14 -4 39 -9 55 -12 17 -2 37 -7 45 -10 8 -3 22 -7 30 -8 8 -2 40
-8 70 -15 30 -7 73 -16 95 -20 52 -10 134 -31 160 -40 11 -5 49 -18 85 -30
132 -45 194 -80 295 -165 108 -91 185 -196 185 -253 0 -71 -62 -126 -158 -139
l-45 -6 7 29 c11 46 51 127 75 151 l21 22 -53 63 c-57 68 -123 122 -198 163
l-47 25 -86 -128 c-47 -71 -88 -136 -92 -145 -3 -9 -12 -17 -19 -17 -23 0
-164 116 -283 232 -127 124 -236 212 -400 323 -106 72 -134 98 -90 88 13 -3
28 -9 33 -13z m2691 -306 c40 -20 78 -42 85 -50 6 -8 16 -14 21 -14 16 0 131
-86 176 -131 23 -24 45 -52 48 -63 4 -12 12 -28 19 -36 21 -25 37 -116 30
-162 -20 -125 -141 -228 -267 -228 l-59 0 25 -33 c28 -36 51 -151 41 -198 -4
-16 -7 -32 -7 -36 -4 -39 -86 -149 -133 -180 -80 -53 -208 -61 -316 -21 -75
28 -223 114 -289 168 -25 21 -55 43 -67 49 -29 15 -30 50 -3 84 11 14 20 27
20 30 0 3 24 40 53 82 28 42 57 85 63 95 5 10 18 29 27 42 9 13 38 55 65 94
308 461 366 544 380 544 8 0 48 -16 88 -36z m728 -485 c23 -17 80 -56 127 -87
48 -31 139 -92 203 -134 64 -43 121 -78 126 -78 16 0 12 -50 -4 -56 -8 -3 -22
-21 -31 -40 -23 -48 -38 -51 -82 -17 -38 29 -227 159 -261 178 -9 6 -30 19
-45 29 -33 22 -28 26 -100 -84 -31 -47 -70 -104 -87 -127 l-30 -42 87 -58 c49
-32 93 -61 98 -66 6 -4 45 -31 88 -58 43 -28 81 -57 84 -65 3 -8 -6 -29 -19
-47 -14 -17 -27 -40 -31 -49 -12 -34 -16 -32 -320 175 -31 21 -62 37 -68 35
-6 -2 -21 -20 -33 -40 -11 -19 -56 -86 -98 -149 -42 -62 -74 -117 -72 -121 3
-4 64 -48 137 -96 236 -159 257 -174 257 -183 0 -11 -69 -103 -81 -107 -5 -2
-57 28 -114 67 -57 39 -109 71 -114 71 -5 0 -11 4 -13 9 -4 10 -276 191 -288
191 -18 0 -20 34 -2 54 17 18 189 271 217 318 22 38 127 191 160 234 19 25 35
52 35 59 0 7 3 15 8 17 4 2 51 69 106 151 54 81 103 147 109 147 5 0 28 -14
51 -31z m796 -539 c102 -32 196 -100 280 -200 l43 -51 -54 -49 c-30 -28 -58
-50 -64 -50 -5 0 -26 23 -45 51 -59 87 -137 142 -223 158 -75 14 -145 -38
-168 -122 -12 -46 4 -93 72 -203 21 -35 39 -69 39 -74 0 -6 4 -10 8 -10 32 0
102 -219 81 -252 -5 -7 -9 -21 -9 -31 0 -65 -118 -217 -167 -217 -7 0 -13 -4
-13 -9 0 -11 -82 -31 -130 -32 -57 -1 -134 18 -186 47 -76 41 -117 67 -134 84
-8 8 -29 26 -46 40 -37 31 -104 128 -104 150 1 14 85 90 108 98 6 2 18 -14 28
-34 22 -46 126 -159 174 -189 111 -69 234 -41 281 63 18 42 19 53 9 98 -10 45
-72 180 -89 194 -11 9 -30 43 -64 110 -41 83 -48 187 -17 255 74 162 222 229
390 175z m-2327 -101 c78 -40 182 -111 230 -157 103 -99 124 -200 66 -318 -56
-113 -136 -167 -249 -167 -92 -1 -152 24 -285 118 -8 5 -16 7 -17 5 -2 -3 -30
-45 -63 -95 -87 -133 -127 -185 -143 -185 -21 0 -92 59 -92 77 0 8 10 29 23
46 12 17 27 40 32 49 6 10 74 112 153 228 78 116 142 214 142 219 0 4 9 16 19
25 10 9 36 45 56 79 43 70 64 97 77 97 5 0 28 -10 51 -21z m3027 -365 c138
-93 259 -174 268 -179 70 -42 162 -109 162 -119 0 -6 -13 -27 -30 -46 -16 -19
-29 -41 -30 -48 -1 -30 -33 -20 -106 32 -121 85 -193 128 -204 121 -6 -3 -30
-36 -55 -73 -24 -37 -90 -134 -145 -217 -56 -82 -109 -163 -120 -180 -10 -16
-23 -34 -27 -40 -17 -20 -149 -218 -168 -252 -27 -48 -50 -62 -73 -45 -9 7
-36 25 -59 40 -23 15 -43 34 -43 42 0 9 24 51 53 94 77 115 105 158 125 190 9
16 27 41 40 56 12 15 22 30 22 34 0 3 32 50 70 105 39 55 70 103 70 107 0 3
20 33 45 65 25 33 45 62 45 66 0 3 12 22 28 42 52 68 54 79 24 98 -119 73
-237 159 -240 175 -5 28 57 111 78 105 10 -3 132 -81 270 -173z m-2292 -121
c85 -57 150 -123 178 -182 22 -47 19 -124 -7 -179 -25 -51 -75 -112 -93 -112
-6 0 -22 -9 -36 -20 -19 -14 -41 -20 -86 -20 l-62 0 9 -37 c10 -46 12 -117 2
-127 -4 -4 -28 -71 -54 -149 -49 -152 -61 -167 -102 -129 -12 11 -32 25 -45
31 -17 9 -22 19 -19 39 4 29 4 28 36 122 39 113 58 191 53 217 -9 46 -149 166
-159 136 -2 -6 -15 -25 -29 -44 -14 -19 -59 -85 -100 -146 -41 -62 -81 -113
-88 -113 -19 0 -106 71 -106 86 0 8 4 14 9 14 7 0 30 32 103 145 7 11 40 59
73 108 33 48 65 96 70 105 6 9 20 30 33 45 12 16 22 33 22 39 0 6 13 25 29 44
16 18 42 55 57 81 15 26 40 64 56 83 15 19 28 40 28 47 0 7 7 16 16 21 19 11
88 -24 212 -105z m458 -313 c24 -17 44 -38 44 -47 0 -9 -30 -61 -67 -116 -38
-55 -76 -114 -87 -131 -10 -17 -28 -43 -40 -57 -11 -15 -82 -119 -156 -232
-74 -113 -141 -208 -148 -211 -14 -6 -112 51 -112 65 0 4 28 49 63 99 34 50
67 98 72 107 6 9 36 55 68 102 32 47 112 168 179 269 67 100 126 182 131 182
5 0 28 -14 53 -30z m441 -301 c62 -23 136 -62 166 -88 55 -46 127 -127 126
-140 0 -9 -21 -31 -46 -49 l-46 -34 -26 34 c-67 86 -165 150 -259 168 -121 22
-266 -62 -346 -202 -34 -59 -45 -96 -52 -178 -4 -59 -2 -70 27 -124 18 -33 50
-77 72 -99 37 -37 168 -107 200 -107 8 0 20 -7 27 -15 19 -23 -17 -105 -47
-105 -71 0 -250 105 -318 187 -68 80 -81 105 -100 181 -18 74 -16 181 4 206 4
6 11 24 15 40 4 16 18 45 32 65 13 19 24 41 24 47 0 23 146 163 200 191 110
56 233 64 347 22z m537 -354 c62 -41 119 -82 126 -90 7 -8 17 -15 23 -15 5 0
25 -11 43 -25 18 -14 35 -25 39 -25 12 0 65 -44 65 -54 0 -6 -11 -23 -25 -38
-14 -15 -25 -32 -25 -38 0 -23 -35 -6 -169 85 -78 52 -145 95 -149 95 -8 0
-142 -196 -142 -207 1 -9 236 -166 256 -171 18 -5 27 -39 15 -54 -6 -7 -21
-26 -34 -42 l-24 -30 -28 20 c-30 21 -60 41 -183 120 l-79 52 -81 -122 c-88
-131 -87 -129 -24 -164 30 -16 238 -157 255 -172 5 -4 -3 -26 -18 -49 -29 -44
-62 -54 -85 -26 -7 8 -18 15 -24 15 -6 0 -27 13 -46 29 -19 15 -48 36 -65 45
-94 53 -255 166 -255 180 1 6 14 29 30 51 16 22 37 54 46 70 9 17 34 52 55 79
22 27 39 53 39 57 0 5 16 32 35 59 83 119 106 152 185 270 74 112 118 170 126
170 2 0 55 -34 118 -75z"/>
<path d="M3954 4954 c-44 -64 -86 -125 -94 -136 -13 -19 -12 -23 15 -44 17
-14 57 -41 90 -61 54 -33 67 -37 130 -38 59 0 75 4 102 24 67 50 84 150 37
221 -31 47 -162 150 -190 150 -6 0 -47 -52 -90 -116z"/>
<path d="M3669 4530 c-52 -77 -102 -153 -111 -168 l-17 -27 62 -41 c118 -79
163 -94 246 -81 64 9 103 37 130 92 30 61 36 109 17 146 -9 18 -16 37 -16 43
0 23 -182 176 -210 176 -3 0 -49 -63 -101 -140z"/>
<path d="M3215 3903 c-41 -63 -74 -112 -113 -168 -32 -46 -32 -48 -15 -68 26
-29 142 -79 184 -79 110 -1 206 136 157 225 -28 48 -141 137 -175 137 -5 0
-22 -21 -38 -47z"/>
<path d="M3782 3474 c-90 -136 -105 -166 -90 -176 155 -103 220 -113 292 -45
70 66 66 147 -12 223 -40 39 -108 84 -127 84 -3 0 -31 -39 -63 -86z"/>
</g>
</svg>
