<svg width="16" height="16" viewBox="0 0 16 16" fill="none" xmlns="http://www.w3.org/2000/svg">
<path d="M1.33325 5.5848C1.33325 5.35125 1.33325 5.23448 1.343 5.13612C1.43699 4.18749 2.18743 3.43705 3.13606 3.34306C3.23441 3.33331 3.35749 3.33331 3.60364 3.33331C3.69849 3.33331 3.74591 3.33331 3.78618 3.33087C4.30033 3.29974 4.75055 2.97523 4.94268 2.49731C4.95773 2.45988 4.97179 2.41769 4.99992 2.33331C5.02805 2.24893 5.04211 2.20674 5.05716 2.16931C5.24928 1.6914 5.69951 1.36689 6.21366 1.33575C6.25393 1.33331 6.2984 1.33331 6.38734 1.33331H9.61249C9.70144 1.33331 9.74591 1.33331 9.78618 1.33575C10.3003 1.36689 10.7506 1.6914 10.9427 2.16931C10.9577 2.20674 10.9718 2.24893 10.9999 2.33331C11.028 2.41769 11.0421 2.45988 11.0572 2.49731C11.2493 2.97523 11.6995 3.29974 12.2137 3.33087C12.2539 3.33331 12.3013 3.33331 12.3962 3.33331C12.6423 3.33331 12.7654 3.33331 12.8638 3.34306C13.8124 3.43705 14.5629 4.18749 14.6568 5.13612C14.6666 5.23448 14.6666 5.35125 14.6666 5.5848V10.8C14.6666 11.9201 14.6666 12.4801 14.4486 12.908C14.2569 13.2843 13.9509 13.5902 13.5746 13.782C13.1467 14 12.5867 14 11.4666 14H4.53325C3.41315 14 2.85309 14 2.42527 13.782C2.04895 13.5902 1.74299 13.2843 1.55124 12.908C1.33325 12.4801 1.33325 11.9201 1.33325 10.8V5.5848Z" stroke="black" strokeLinecap="round" strokeLinejoin="round"/>
<path d="M7.99992 11C9.47268 11 10.6666 9.80607 10.6666 8.33331C10.6666 6.86055 9.47268 5.66665 7.99992 5.66665C6.52716 5.66665 5.33325 6.86055 5.33325 8.33331C5.33325 9.80607 6.52716 11 7.99992 11Z" stroke="black" strokeLinecap="round" strokeLinejoin="round"/>
</svg>
