<?xml version="1.0" standalone="no"?>
<!DOCTYPE svg PUBLIC "-//W3C//DTD SVG 20010904//EN"
 "http://www.w3.org/TR/2001/REC-SVG-20010904/DTD/svg10.dtd">
<svg version="1.0" xmlns="http://www.w3.org/2000/svg"
 width="216.000000pt" height="233.000000pt" viewBox="0 0 216.000000 233.000000"
 preserveAspectRatio="xMidYMid meet">

<g transform="translate(0.000000,233.000000) scale(0.100000,-0.100000)"
fill="#EC6416" stroke="none">
<path d="M403 2204 c-54 -20 -128 -85 -156 -138 -20 -38 -22 -57 -25 -243 -3
-175 -1 -203 11 -203 13 0 16 30 19 193 3 175 5 196 25 233 50 93 163 154 256
139 119 -20 217 -130 217 -244 0 -21 5 -31 15 -31 22 0 19 85 -6 140 -25 55
-81 115 -134 142 -52 28 -164 34 -222 12z"/>
<path d="M550 1860 c0 -6 7 -13 15 -16 23 -9 20 -76 -5 -92 -25 -15 -25 -34
-1 -56 15 -14 24 -15 40 -6 25 13 29 58 6 66 -10 4 -15 20 -15 45 0 39 0 39
40 39 l40 0 0 -104 c0 -80 -3 -106 -15 -116 -33 -28 -6 -100 38 -100 14 0 14
3 1 28 -19 36 -18 44 8 77 l22 28 -22 -5 c-22 -6 -22 -4 -22 93 l0 99 40 0 40
0 0 -46 c0 -36 -4 -47 -18 -51 -27 -7 -25 -56 2 -69 32 -14 63 4 63 37 0 18
-6 29 -19 32 -14 4 -18 15 -18 51 l0 46 40 0 40 0 0 -113 c0 -101 -2 -113 -20
-125 -44 -27 -7 -97 39 -73 10 6 21 18 25 26 7 18 -10 55 -24 55 -6 0 -10 48
-10 115 l0 115 40 0 40 0 0 -49 c0 -60 -7 -81 -27 -81 -13 0 -13 -3 -3 -15 7
-8 10 -21 7 -28 -3 -9 5 -13 29 -13 28 0 33 3 29 17 -4 11 1 22 12 28 17 10
16 10 -3 11 -27 0 -34 17 -34 80 0 33 5 50 15 54 8 3 15 10 15 16 0 6 -74 10
-215 10 -141 0 -215 -4 -215 -10z"/>
<path d="M165 1590 c-13 -22 12 -31 76 -28 49 2 64 7 64 18 0 12 -15 16 -67
18 -41 2 -69 -1 -73 -8z"/>
<path d="M1923 1593 c-10 -4 -13 -145 -13 -659 l0 -654 45 0 45 0 0 648 c0
491 -3 651 -12 660 -12 12 -43 15 -65 5z"/>
<path d="M190 910 l0 -630 45 0 45 0 0 630 0 630 -45 0 -45 0 0 -630z"/>
<path d="M340 1431 c0 -18 6 -21 46 -21 38 0 45 3 42 18 -2 12 -15 18 -46 20
-37 3 -42 1 -42 -17z"/>
<path d="M517 1443 c-20 -19 -5 -33 36 -33 48 0 58 5 50 26 -5 14 -74 20 -86
7z"/>
<path d="M685 1440 c-12 -19 10 -32 51 -28 27 2 39 8 39 18 0 19 -79 27 -90
10z"/>
<path d="M867 1443 c-20 -19 -5 -33 38 -33 38 0 45 3 45 20 0 17 -7 20 -38 20
-21 0 -42 -3 -45 -7z"/>
<path d="M1035 1440 c-12 -19 10 -32 51 -28 27 2 39 8 39 18 0 19 -79 27 -90
10z"/>
<path d="M1210 1430 c0 -17 7 -20 45 -20 38 0 45 3 45 20 0 17 -7 20 -45 20
-38 0 -45 -3 -45 -20z"/>
<path d="M1385 1440 c-12 -19 10 -32 51 -28 27 2 39 8 39 18 0 19 -79 27 -90
10z"/>
<path d="M1560 1431 c0 -18 6 -21 46 -21 38 0 45 3 42 18 -2 12 -15 18 -46 20
-37 3 -42 1 -42 -17z"/>
<path d="M1737 1443 c-20 -19 -5 -33 38 -33 38 0 45 3 45 20 0 17 -7 20 -38
20 -21 0 -42 -3 -45 -7z"/>
<path d="M300 1365 l0 -25 790 0 790 0 0 25 0 25 -790 0 -790 0 0 -25z"/>
<path d="M360 1080 l0 -240 25 0 25 0 0 240 0 240 -25 0 -25 0 0 -240z"/>
<path d="M535 1080 l0 -240 23 0 22 0 0 240 0 240 -22 0 -23 0 0 -240z"/>
<path d="M710 1080 c0 -233 1 -240 20 -240 19 0 20 7 20 240 0 233 -1 240 -20
240 -19 0 -20 -7 -20 -240z"/>
<path d="M880 1080 l0 -240 25 0 25 0 0 240 0 240 -25 0 -25 0 0 -240z"/>
<path d="M1060 1080 c0 -233 1 -240 20 -240 19 0 20 7 20 240 0 233 -1 240
-20 240 -19 0 -20 -7 -20 -240z"/>
<path d="M1230 1080 l0 -240 25 0 25 0 0 240 0 240 -25 0 -25 0 0 -240z"/>
<path d="M1410 1080 c0 -233 1 -240 20 -240 19 0 20 7 20 240 0 233 -1 240
-20 240 -19 0 -20 -7 -20 -240z"/>
<path d="M1580 1080 l0 -240 23 0 22 0 0 240 0 240 -22 0 -23 0 0 -240z"/>
<path d="M1760 1080 c0 -233 1 -240 20 -240 19 0 20 7 20 240 0 233 -1 240
-20 240 -19 0 -20 -7 -20 -240z"/>
<path d="M300 755 l0 -65 790 0 790 0 0 65 0 65 -790 0 -790 0 0 -65z"/>
<path d="M300 640 l0 -30 790 0 790 0 0 30 0 30 -790 0 -790 0 0 -30z"/>
</g>
</svg>
