<?xml version="1.0" standalone="no"?>
<!DOCTYPE svg PUBLIC "-//W3C//DTD SVG 20010904//EN"
 "http://www.w3.org/TR/2001/REC-SVG-20010904/DTD/svg10.dtd">
<svg version="1.0" xmlns="http://www.w3.org/2000/svg"
 width="480.000000pt" height="360.000000pt" viewBox="0 0 480.000000 360.000000"
 preserveAspectRatio="xMidYMid meet">

<g transform="translate(0.000000,360.000000) scale(0.100000,-0.100000)"
fill="#EC6416" stroke="none">
<path d="M1170 3184 c-314 -83 -462 -424 -313 -719 32 -62 132 -162 199 -197
274 -147 609 -9 710 292 26 78 24 224 -5 304 -88 245 -347 385 -591 320z"/>
<path d="M3380 3182 c-154 -40 -276 -152 -337 -309 -34 -87 -38 -228 -9 -313
71 -211 258 -350 471 -350 140 0 250 46 351 145 98 97 144 208 144 351 0 326
-303 559 -620 476z"/>
<path d="M2283 2895 c-125 -27 -252 -117 -325 -229 -53 -82 -79 -172 -80 -276
-1 -155 51 -279 163 -384 208 -196 510 -196 718 0 111 105 165 230 163 384 -3
334 -309 577 -639 505z"/>
<path d="M880 2076 c-175 -49 -311 -199 -339 -376 -6 -36 -11 -196 -11 -356
l0 -291 83 -38 c110 -51 228 -90 351 -117 85 -19 133 -22 301 -23 l200 0 5
265 c6 254 7 268 31 332 36 93 80 157 156 229 74 68 175 122 265 141 33 7 58
17 58 24 0 22 -106 128 -161 161 -99 59 -134 63 -534 62 -255 -1 -373 -4 -405
-13z"/>
<path d="M3090 2074 c-30 -8 -79 -29 -109 -47 -55 -33 -161 -139 -161 -161 0
-7 25 -17 58 -24 90 -19 191 -73 265 -141 76 -72 120 -136 156 -229 24 -64 25
-78 31 -332 l5 -265 200 0 c170 1 216 4 304 24 117 25 240 67 354 118 l77 36
0 291 c0 160 -5 320 -11 356 -29 179 -166 329 -344 376 -75 20 -748 18 -825
-2z"/>
<path d="M1920 1721 c-88 -28 -140 -60 -200 -120 -67 -66 -114 -159 -129 -251
-6 -37 -11 -218 -11 -412 l0 -348 41 -21 c200 -101 510 -169 779 -169 269 0
579 68 779 169 l41 21 0 353 c0 211 -4 377 -11 413 -24 133 -123 270 -235 327
-110 56 -123 57 -578 56 -375 0 -427 -2 -476 -18z"/>
</g>
</svg>
