<?xml version="1.0" standalone="no"?>
<!DOCTYPE svg PUBLIC "-//W3C//DTD SVG 20010904//EN"
 "http://www.w3.org/TR/2001/REC-SVG-20010904/DTD/svg10.dtd">
<svg version="1.0" xmlns="http://www.w3.org/2000/svg"
 width="820.000000pt" height="941.000000pt" viewBox="0 0 820.000000 941.000000"
 preserveAspectRatio="xMidYMid meet">

<g transform="translate(0.000000,941.000000) scale(0.100000,-0.100000)"
fill="#EC6416" stroke="none">
<path d="M1410 8984 c-14 -2 -77 -11 -140 -20 -202 -28 -395 -100 -552 -206
-72 -48 -243 -215 -297 -291 -44 -60 -121 -207 -121 -229 0 -8 -6 -22 -14 -33
-48 -70 -110 -445 -101 -615 13 -247 28 -352 95 -665 10 -49 28 -139 40 -200
11 -60 26 -132 31 -160 6 -27 16 -84 24 -125 7 -41 18 -95 24 -120 6 -25 25
-106 41 -180 52 -236 68 -297 115 -445 9 -27 20 -64 24 -82 19 -73 145 -370
210 -494 56 -106 166 -270 245 -362 36 -43 73 -90 80 -105 23 -42 3468 -3478
3496 -3487 14 -4 33 -14 42 -22 24 -21 161 -53 228 -53 127 0 311 70 420 158
25 21 631 622 1346 1337 1415 1414 1334 1326 1406 1513 26 69 29 89 30 192 0
125 -15 183 -76 278 -34 55 -3437 3456 -3491 3490 -22 13 -63 45 -91 71 -151
136 -298 225 -586 355 -20 9 -41 16 -48 16 -6 0 -28 9 -48 19 -45 23 -123 52
-222 81 -41 12 -108 33 -148 46 -40 13 -81 24 -93 24 -11 0 -28 4 -38 9 -21
12 -307 76 -451 102 -30 5 -84 16 -120 24 -98 22 -246 53 -330 69 -41 8 -129
26 -195 40 -212 45 -384 67 -550 71 -88 2 -171 2 -185 -1z m-83 -680 c107 -31
180 -93 238 -204 28 -51 30 -62 28 -156 -1 -94 -3 -105 -36 -171 -41 -81 -86
-123 -179 -170 -61 -31 -68 -32 -158 -28 -119 5 -186 32 -257 104 -93 94 -127
203 -104 335 37 215 258 351 468 290z m1840 -1587 c166 -167 197 -203 224
-261 28 -60 31 -75 27 -134 -7 -85 -34 -139 -113 -217 -49 -50 -74 -66 -137
-88 -58 -22 -85 -27 -113 -21 -109 20 -193 74 -330 213 -38 39 -76 71 -85 71
-8 0 -73 -59 -143 -130 -71 -72 -136 -130 -145 -130 -21 0 -146 123 -141 139
8 23 733 751 748 751 9 0 103 -87 208 -193z m693 -690 c203 -199 267 -272 305
-344 25 -48 26 -55 17 -121 -12 -86 -31 -122 -98 -189 -96 -96 -202 -112 -337
-51 -56 25 -72 15 -55 -33 12 -35 1 -123 -38 -294 -14 -66 -29 -137 -31 -157
-9 -70 -25 -68 -109 13 -42 41 -80 84 -85 96 -5 14 -3 41 6 75 9 29 21 90 29
135 8 45 17 87 21 93 3 5 10 50 15 99 9 79 7 94 -10 133 -20 45 -82 118 -99
118 -6 0 -77 -67 -159 -150 -81 -82 -154 -150 -162 -150 -18 0 -140 123 -140
142 0 8 57 73 128 144 492 500 607 614 616 614 6 0 90 -78 186 -173z m669
-661 c35 -35 62 -69 60 -74 -7 -19 -737 -752 -749 -752 -21 0 -141 123 -138
141 5 28 720 747 743 748 13 1 46 -24 84 -63z m411 -424 c93 -47 117 -66 180
-137 88 -100 114 -159 118 -272 3 -71 0 -104 -14 -140 -32 -89 -40 -90 -139
-29 -78 49 -71 29 -59 172 5 49 2 70 -14 101 -20 39 -82 101 -120 122 -71 38
-178 28 -263 -24 -137 -85 -279 -281 -279 -385 0 -87 96 -207 184 -231 52 -14
129 -4 176 23 43 25 65 20 82 -19 7 -15 25 -48 40 -72 16 -25 28 -51 28 -58 0
-20 -86 -58 -173 -77 -71 -16 -83 -16 -146 -2 -97 22 -158 56 -225 124 -118
120 -159 210 -158 347 0 70 6 105 25 157 13 37 29 73 34 80 6 7 14 24 18 37 4
13 53 70 109 126 82 82 115 108 178 138 105 51 137 57 258 52 91 -4 113 -8
160 -33z m879 -852 c149 -145 271 -269 271 -274 0 -6 -21 -32 -47 -58 -32 -32
-56 -48 -73 -48 -19 0 -66 41 -205 181 -99 99 -188 185 -199 191 -16 8 -30 -1
-92 -63 -41 -41 -74 -81 -74 -90 0 -9 77 -92 171 -185 94 -93 175 -177 181
-188 8 -15 1 -27 -43 -72 -29 -30 -60 -54 -67 -54 -8 0 -93 77 -188 172 -96
95 -180 176 -188 180 -18 10 -196 -167 -196 -194 0 -10 90 -108 200 -218 110
-110 200 -205 200 -210 0 -6 -22 -33 -49 -61 -34 -35 -56 -50 -70 -47 -11 2
-142 124 -291 272 -215 214 -270 273 -268 291 2 14 139 161 358 384 271 275
360 360 377 358 13 -1 125 -103 292 -267z"/>
<path d="M2884 6538 c-52 -50 -96 -100 -100 -111 -7 -22 27 -61 127 -143 82
-67 113 -79 168 -64 61 16 97 52 111 109 10 43 9 55 -7 90 -18 40 -176 211
-196 211 -5 0 -52 -41 -103 -92z"/>
<path d="M3608 5834 c-90 -93 -93 -98 -74 -127 33 -47 222 -208 259 -219 81
-25 167 40 167 126 0 54 -10 69 -128 189 -74 74 -114 107 -129 107 -16 0 -47
-25 -95 -76z"/>
<path d="M129 6103 c-12 -30 -4 -298 11 -428 21 -173 62 -400 95 -535 72 -286
132 -506 178 -655 9 -27 25 -79 36 -115 11 -36 41 -123 66 -195 26 -71 53
-150 61 -175 8 -25 30 -85 50 -135 19 -49 43 -112 54 -140 36 -99 72 -192 106
-275 19 -47 34 -91 34 -98 0 -7 9 -30 19 -50 11 -20 28 -59 40 -87 54 -132
113 -273 126 -300 8 -16 30 -68 48 -115 37 -93 90 -218 112 -265 7 -16 73
-165 146 -330 72 -165 135 -304 139 -310 4 -5 50 -107 103 -225 52 -118 103
-228 111 -245 9 -16 16 -34 16 -38 0 -4 16 -42 36 -85 50 -107 61 -131 159
-357 48 -110 93 -213 101 -230 7 -16 27 -64 44 -105 61 -147 93 -196 165 -248
71 -52 111 -74 185 -102 57 -22 81 -25 200 -25 165 0 217 15 505 145 22 10 76
32 120 48 44 17 150 59 235 93 85 33 175 69 200 79 269 106 412 164 445 180
77 36 163 70 176 70 8 0 23 7 33 15 11 8 26 15 34 15 8 0 33 8 56 19 23 10 55
23 71 28 49 14 40 44 -20 66 -66 24 -109 60 -305 252 -167 164 -631 595 -795
740 -49 43 -112 100 -140 125 -53 50 -126 116 -270 245 -389 348 -899 839
-1200 1155 -327 344 -644 738 -880 1095 -62 94 -120 184 -129 200 -10 17 -28
48 -41 70 -55 93 -235 446 -235 461 0 6 -46 109 -61 137 -12 22 -56 146 -109
307 -61 184 -80 249 -80 275 0 32 -17 75 -30 75 -6 0 -15 -12 -21 -27z"/>
</g>
</svg>
