<?xml version="1.0" standalone="no"?>
<!DOCTYPE svg PUBLIC "-//W3C//DTD SVG 20010904//EN"
 "http://www.w3.org/TR/2001/REC-SVG-20010904/DTD/svg10.dtd">
<svg version="1.0" xmlns="http://www.w3.org/2000/svg"
 width="600.000000pt" height="600.000000pt" viewBox="0 0 600.000000 600.000000"
 preserveAspectRatio="xMidYMid meet">

<g transform="translate(0.000000,600.000000) scale(0.100000,-0.100000)"
fill="#EC6416"  stroke="none">
<path d="M197 5986 c-91 -33 -164 -109 -187 -197 -7 -24 -9 -1017 -8 -2810 l3
-2774 30 -53 c32 -59 66 -91 129 -125 l41 -22 2795 0 2795 0 53 30 c59 32 91
66 125 129 l22 41 0 2795 0 2795 -22 41 c-34 63 -66 97 -125 129 l-53 30
-2780 2 c-2321 2 -2786 0 -2818 -11z m5588 -77 c51 -14 110 -73 124 -124 16
-57 16 -5513 0 -5570 -14 -51 -73 -110 -124 -124 -57 -16 -5513 -16 -5570 0
-51 14 -110 73 -124 124 -15 56 -16 5513 0 5568 14 51 64 104 114 122 34 12
446 14 2790 15 1977 0 2761 -3 2790 -11z"/>
<path d="M1730 4955 l-1255 -392 -3 -176 c-2 -144 0 -177 11 -177 8 0 40 9 72
20 32 11 62 20 67 20 4 0 8 -805 8 -1790 l0 -1790 50 0 50 0 0 1808 0 1807
1135 353 1135 354 1137 -355 1138 -354 3 -1806 2 -1807 50 0 50 0 0 1790 c0
985 2 1790 3 1790 2 0 30 -9 62 -20 32 -11 64 -20 72 -20 11 0 13 33 11 177
l-3 176 -1260 393 c-693 216 -1264 393 -1270 393 -5 -1 -575 -178 -1265 -394z"/>
<path d="M2241 4385 c-185 -41 -348 -173 -433 -351 -128 -271 -34 -605 219
-778 189 -129 452 -141 650 -30 81 45 178 135 223 208 l35 56 125 0 125 0 92
92 93 93 70 -70 70 -70 72 72 72 72 67 -72 68 -72 73 72 73 73 75 -75 76 -76
137 140 c75 76 137 147 137 156 0 10 -50 69 -112 132 l-112 113 -602 0 -602 0
-46 64 c-145 204 -401 303 -645 251z m95 -446 c46 -14 95 -70 109 -127 30
-115 -44 -226 -159 -239 -161 -19 -272 161 -182 297 50 76 130 100 232 69z"/>
<path d="M1585 2911 c-16 -10 -39 -28 -50 -41 -20 -22 -20 -38 -23 -1069 l-2
-1048 23 -34 c12 -19 38 -42 57 -51 33 -17 125 -18 1490 -18 1365 0 1457 1
1489 18 19 9 44 30 55 45 21 28 21 34 24 1070 2 1026 2 1043 -18 1075 -11 18
-34 41 -52 52 -33 20 -54 20 -1498 20 -1409 0 -1466 -1 -1495 -19z m2855 -97
c24 -10 48 -29 60 -49 20 -33 20 -43 18 -985 l-3 -952 -37 -34 -38 -34 -1370
0 c-1535 0 -1415 -6 -1451 73 -18 40 -19 80 -19 952 0 572 4 923 10 946 12 42
46 76 86 89 16 4 631 9 1366 9 1204 1 1342 -1 1378 -15z"/>
<path d="M2851 2693 c-60 -30 -71 -61 -71 -200 l0 -123 -150 0 -150 0 0 -755
0 -755 615 0 615 0 0 755 0 755 -150 0 -150 0 0 123 c0 139 -12 171 -73 200
-52 25 -436 25 -486 0z m447 -210 l-3 -108 -202 -3 -203 -2 0 110 0 110 205 0
206 0 -3 -107z"/>
<path d="M2103 2349 c-48 -23 -88 -66 -112 -119 -14 -31 -16 -105 -16 -615 0
-552 1 -582 19 -619 26 -51 80 -102 125 -118 20 -7 83 -12 141 -13 l105 0 3
753 2 752 -112 0 c-95 0 -120 -3 -155 -21z"/>
<path d="M3822 1618 l3 -753 105 0 c121 1 164 13 212 59 76 74 73 47 76 660 2
376 -1 566 -8 603 -14 67 -60 129 -119 160 -39 20 -58 23 -158 23 l-113 0 2
-752z"/>
</g>
</svg>
